<svg width="100" height="100" viewBox="0 0 100 100" fill="none" xmlns="http://www.w3.org/2000/svg">
<rect width="100" height="100" fill="#1C1C1C"/>
<path fill-rule="evenodd" clip-rule="evenodd" d="M54.6451 26.1237C56.1318 26.4741 57.1429 27.5049 57.1429 28.6703V42.0209L71.4286 42.0209C72.7603 42.0209 73.9813 42.5749 74.5963 43.4579C75.2113 44.341 75.1181 45.4066 74.3544 46.2223L49.3544 72.9235C48.4605 73.8782 46.8416 74.2892 45.3549 73.9388C43.8682 73.5885 42.8571 72.5577 42.8571 71.3922L42.8571 58.0416H28.5714C27.2397 58.0416 26.0186 57.4877 25.4037 56.6046C24.7887 55.7215 24.8819 54.6559 25.6456 53.8403L50.6456 27.1391C51.5395 26.1843 53.1584 25.7733 54.6451 26.1237Z" fill="white"/>
</svg>
